<svg xmlns="http://www.w3.org/2000/svg" viewBox="0 0 32 32" width="32" height="32">
  <defs>
    <linearGradient id="grad1" x1="0%" y1="0%" x2="100%" y2="100%">
      <stop offset="0%" style="stop-color:#667eea;stop-opacity:1" />
      <stop offset="100%" style="stop-color:#764ba2;stop-opacity:1" />
    </linearGradient>
  </defs>
  
  <!-- Background circle -->
  <circle cx="16" cy="16" r="15" fill="url(#grad1)" stroke="#fff" stroke-width="1"/>
  
  <!-- House/Building icon -->
  <path d="M8 24h16v-8l-8-6-8 6v8z" fill="#fff" opacity="0.9"/>
  <path d="M6 16l10-8 10 8" stroke="#fff" stroke-width="2" fill="none" stroke-linecap="round" stroke-linejoin="round"/>
  
  <!-- Door -->
  <rect x="14" y="20" width="4" height="4" fill="url(#grad1)"/>
  
  <!-- Windows -->
  <rect x="10" y="18" width="2" height="2" fill="url(#grad1)"/>
  <rect x="20" y="18" width="2" height="2" fill="url(#grad1)"/>
  
  <!-- Tools overlay (hammer and wrench) -->
  <g opacity="0.8">
    <path d="M12 12l2 2-1 1-2-2z" fill="#fff"/>
    <path d="M18 12c1 0 2 1 2 2s-1 2-2 2-2-1-2-2 1-2 2-2z" fill="#fff"/>
  </g>
</svg>
