<svg width="1200" height="630" viewBox="0 0 1200 630" xmlns="http://www.w3.org/2000/svg">
  <!-- Background -->
  <rect width="1200" height="630" fill="#000000"/>
  
  <!-- Gradient overlay -->
  <defs>
    <linearGradient id="bgGrad" x1="0%" y1="0%" x2="100%" y2="100%">
      <stop offset="0%" style="stop-color:#000000;stop-opacity:1" />
      <stop offset="100%" style="stop-color:#333333;stop-opacity:1" />
    </linearGradient>
  </defs>
  <rect width="1200" height="630" fill="url(#bgGrad)"/>

  <!-- Building silhouette (scaled up from your logo) -->
  <g fill="#ffffff" transform="translate(100, 150) scale(4)">
    <!-- Main building -->
    <rect x="20" y="25" width="30" height="35" rx="2"/>
    <!-- Tower -->
    <rect x="30" y="15" width="10" height="10" rx="1"/>
    <!-- Clock -->
    <circle cx="35" cy="20" r="3" fill="none" stroke="#ffffff" stroke-width="1"/>
    <line x1="35" y1="20" x2="35" y2="18" stroke="#ffffff" stroke-width="1"/>
    <line x1="35" y1="20" x2="37" y2="20" stroke="#ffffff" stroke-width="1"/>
    
    <!-- Side buildings -->
    <rect x="10" y="35" width="8" height="25" rx="1"/>
    <rect x="52" y="30" width="12" height="30" rx="1"/>
    
    <!-- Windows -->
    <rect x="23" y="30" width="3" height="4" fill="#000000"/>
    <rect x="28" y="30" width="3" height="4" fill="#000000"/>
    <rect x="23" y="36" width="3" height="4" fill="#000000"/>
    <rect x="28" y="36" width="3" height="4" fill="#000000"/>
    <rect x="23" y="42" width="3" height="4" fill="#000000"/>
    <rect x="28" y="42" width="3" height="4" fill="#000000"/>
    <rect x="23" y="48" width="3" height="4" fill="#000000"/>
    <rect x="28" y="48" width="3" height="4" fill="#000000"/>

    <!-- Side building windows -->
    <rect x="12" y="40" width="2" height="3" fill="#000000"/>
    <rect x="15" y="40" width="2" height="3" fill="#000000"/>
    <rect x="12" y="45" width="2" height="3" fill="#000000"/>
    <rect x="15" y="45" width="2" height="3" fill="#000000"/>
    <rect x="12" y="50" width="2" height="3" fill="#000000"/>
    <rect x="15" y="50" width="2" height="3" fill="#000000"/>

    <rect x="55" y="35" width="2" height="3" fill="#000000"/>
    <rect x="58" y="35" width="2" height="3" fill="#000000"/>
    <rect x="55" y="40" width="2" height="3" fill="#000000"/>
    <rect x="58" y="40" width="2" height="3" fill="#000000"/>
    <rect x="55" y="45" width="2" height="3" fill="#000000"/>
    <rect x="58" y="45" width="2" height="3" fill="#000000"/>
    <rect x="55" y="50" width="2" height="3" fill="#000000"/>
    <rect x="58" y="50" width="2" height="3" fill="#000000"/>
  </g>
  
  <!-- Company name (large) -->
  <text x="600" y="280" font-family="Arial, sans-serif" font-size="72" font-weight="bold" fill="#ffffff" text-anchor="middle">
    Capital City Contractors
  </text>
  
  <!-- Tagline -->
  <text x="600" y="340" font-family="Arial, sans-serif" font-size="36" fill="#e5e7eb" text-anchor="middle">
    Quality • Reliability • Excellence
  </text>
  
  <!-- Services -->
  <text x="600" y="420" font-family="Arial, sans-serif" font-size="28" fill="#ffffff" text-anchor="middle">
    Professional Painting • Drywall • Taping • Carpet Installation
  </text>
  
  <!-- Contact -->
  <text x="600" y="480" font-family="Arial, sans-serif" font-size="24" fill="#e5e7eb" text-anchor="middle">
    (613) 301-1311 • capitalcitycontractors.ca
  </text>
</svg>
